<mxfile host="app.diagrams.net" agent="Mozilla/5.0 (X11; Linux x86_64) AppleWebKit/537.36 (KHTML, like Gecko) Chrome/128.0.0.0 Safari/537.36" version="24.7.14">
  <diagram name="Page-1" id="wDgwUH4yZrsznBnCyvqJ">
    <mxGraphModel dx="1591" dy="886" grid="1" gridSize="10" guides="1" tooltips="1" connect="1" arrows="1" fold="1" page="1" pageScale="1" pageWidth="850" pageHeight="1100" math="0" shadow="0">
      <root>
        <mxCell id="0" />
        <mxCell id="1" parent="0" />
        <mxCell id="YPFUfWVb4xvoclRdpn4Y-13" style="edgeStyle=orthogonalEdgeStyle;rounded=0;orthogonalLoop=1;jettySize=auto;html=1;exitX=0.5;exitY=1;exitDx=0;exitDy=0;exitPerimeter=0;entryX=0.5;entryY=0;entryDx=0;entryDy=0;" parent="1" source="YPFUfWVb4xvoclRdpn4Y-2" target="YPFUfWVb4xvoclRdpn4Y-4" edge="1">
          <mxGeometry relative="1" as="geometry" />
        </mxCell>
        <mxCell id="YPFUfWVb4xvoclRdpn4Y-2" value="Start" style="strokeWidth=2;html=1;shape=mxgraph.flowchart.start_1;whiteSpace=wrap;" parent="1" vertex="1">
          <mxGeometry x="325" y="160" width="100" height="60" as="geometry" />
        </mxCell>
        <mxCell id="YPFUfWVb4xvoclRdpn4Y-3" value="End" style="strokeWidth=2;html=1;shape=mxgraph.flowchart.start_1;whiteSpace=wrap;" parent="1" vertex="1">
          <mxGeometry x="325" y="850" width="100" height="60" as="geometry" />
        </mxCell>
        <mxCell id="YPFUfWVb4xvoclRdpn4Y-14" style="edgeStyle=orthogonalEdgeStyle;rounded=0;orthogonalLoop=1;jettySize=auto;html=1;exitX=0.5;exitY=1;exitDx=0;exitDy=0;entryX=0.5;entryY=0;entryDx=0;entryDy=0;" parent="1" source="YPFUfWVb4xvoclRdpn4Y-4" target="YPFUfWVb4xvoclRdpn4Y-5" edge="1">
          <mxGeometry relative="1" as="geometry" />
        </mxCell>
        <mxCell id="YPFUfWVb4xvoclRdpn4Y-4" value="Pilih 1 dari 3 gambar" style="shape=parallelogram;perimeter=parallelogramPerimeter;whiteSpace=wrap;html=1;fixedSize=1;" parent="1" vertex="1">
          <mxGeometry x="282.5" y="250" width="185" height="60" as="geometry" />
        </mxCell>
        <mxCell id="YPFUfWVb4xvoclRdpn4Y-22" style="edgeStyle=orthogonalEdgeStyle;rounded=0;orthogonalLoop=1;jettySize=auto;html=1;exitX=0.5;exitY=1;exitDx=0;exitDy=0;entryX=0.5;entryY=0;entryDx=0;entryDy=0;" parent="1" source="YPFUfWVb4xvoclRdpn4Y-5" target="YPFUfWVb4xvoclRdpn4Y-6" edge="1">
          <mxGeometry relative="1" as="geometry">
            <mxPoint x="375" y="420" as="targetPoint" />
          </mxGeometry>
        </mxCell>
        <mxCell id="YPFUfWVb4xvoclRdpn4Y-5" value="Tabel Citra dan Form Input Muncul" style="rounded=0;whiteSpace=wrap;html=1;" parent="1" vertex="1">
          <mxGeometry x="315" y="340" width="120" height="60" as="geometry" />
        </mxCell>
        <mxCell id="YPFUfWVb4xvoclRdpn4Y-16" style="edgeStyle=orthogonalEdgeStyle;rounded=0;orthogonalLoop=1;jettySize=auto;html=1;exitX=0.5;exitY=1;exitDx=0;exitDy=0;entryX=0.5;entryY=0;entryDx=0;entryDy=0;" parent="1" target="YPFUfWVb4xvoclRdpn4Y-7" edge="1">
          <mxGeometry relative="1" as="geometry">
            <mxPoint x="375" y="570" as="sourcePoint" />
            <Array as="points">
              <mxPoint x="375" y="530" />
              <mxPoint x="375" y="530" />
            </Array>
          </mxGeometry>
        </mxCell>
        <mxCell id="YPFUfWVb4xvoclRdpn4Y-6" value="Ubah nilai citra warna" style="shape=parallelogram;perimeter=parallelogramPerimeter;whiteSpace=wrap;html=1;fixedSize=1;" parent="1" vertex="1">
          <mxGeometry x="282.5" y="470" width="185" height="60" as="geometry" />
        </mxCell>
        <mxCell id="YPFUfWVb4xvoclRdpn4Y-17" style="edgeStyle=orthogonalEdgeStyle;rounded=0;orthogonalLoop=1;jettySize=auto;html=1;exitX=0.5;exitY=1;exitDx=0;exitDy=0;entryX=0.5;entryY=0;entryDx=0;entryDy=0;" parent="1" source="YPFUfWVb4xvoclRdpn4Y-7" target="YPFUfWVb4xvoclRdpn4Y-9" edge="1">
          <mxGeometry relative="1" as="geometry" />
        </mxCell>
        <mxCell id="YPFUfWVb4xvoclRdpn4Y-7" value="Tekan Tombol Play" style="shape=parallelogram;perimeter=parallelogramPerimeter;whiteSpace=wrap;html=1;fixedSize=1;" parent="1" vertex="1">
          <mxGeometry x="282.5" y="590" width="185" height="60" as="geometry" />
        </mxCell>
        <mxCell id="YPFUfWVb4xvoclRdpn4Y-18" style="edgeStyle=orthogonalEdgeStyle;rounded=0;orthogonalLoop=1;jettySize=auto;html=1;exitX=1;exitY=0.5;exitDx=0;exitDy=0;entryX=0;entryY=0.5;entryDx=0;entryDy=0;" parent="1" source="YPFUfWVb4xvoclRdpn4Y-9" target="YPFUfWVb4xvoclRdpn4Y-19" edge="1">
          <mxGeometry relative="1" as="geometry">
            <mxPoint x="510" y="720" as="targetPoint" />
          </mxGeometry>
        </mxCell>
        <mxCell id="YPFUfWVb4xvoclRdpn4Y-9" value="Proses mengubah citra RGB menjadi citra grayscale" style="rounded=0;whiteSpace=wrap;html=1;" parent="1" vertex="1">
          <mxGeometry x="315" y="690" width="120" height="60" as="geometry" />
        </mxCell>
        <mxCell id="YPFUfWVb4xvoclRdpn4Y-23" style="edgeStyle=orthogonalEdgeStyle;rounded=0;orthogonalLoop=1;jettySize=auto;html=1;exitX=0.5;exitY=0;exitDx=0;exitDy=0;" parent="1" source="YPFUfWVb4xvoclRdpn4Y-19" edge="1">
          <mxGeometry relative="1" as="geometry">
            <mxPoint x="370" y="560" as="targetPoint" />
            <Array as="points">
              <mxPoint x="530" y="560" />
            </Array>
          </mxGeometry>
        </mxCell>
        <mxCell id="YPFUfWVb4xvoclRdpn4Y-24" value="Ya" style="edgeLabel;html=1;align=center;verticalAlign=middle;resizable=0;points=[];" parent="YPFUfWVb4xvoclRdpn4Y-23" vertex="1" connectable="0">
          <mxGeometry x="0.4015" relative="1" as="geometry">
            <mxPoint as="offset" />
          </mxGeometry>
        </mxCell>
        <mxCell id="YPFUfWVb4xvoclRdpn4Y-30" style="edgeStyle=orthogonalEdgeStyle;rounded=0;orthogonalLoop=1;jettySize=auto;html=1;exitX=1;exitY=0.5;exitDx=0;exitDy=0;entryX=0;entryY=0.5;entryDx=0;entryDy=0;" parent="1" source="YPFUfWVb4xvoclRdpn4Y-19" target="YPFUfWVb4xvoclRdpn4Y-29" edge="1">
          <mxGeometry relative="1" as="geometry" />
        </mxCell>
        <mxCell id="YPFUfWVb4xvoclRdpn4Y-19" value="Pause" style="rhombus;whiteSpace=wrap;html=1;" parent="1" vertex="1">
          <mxGeometry x="490" y="680" width="80" height="80" as="geometry" />
        </mxCell>
        <mxCell id="YPFUfWVb4xvoclRdpn4Y-25" style="edgeStyle=orthogonalEdgeStyle;rounded=0;orthogonalLoop=1;jettySize=auto;html=1;exitX=0.5;exitY=1;exitDx=0;exitDy=0;entryX=1;entryY=0.5;entryDx=0;entryDy=0;entryPerimeter=0;" parent="1" source="YPFUfWVb4xvoclRdpn4Y-19" target="YPFUfWVb4xvoclRdpn4Y-3" edge="1">
          <mxGeometry relative="1" as="geometry" />
        </mxCell>
        <mxCell id="YPFUfWVb4xvoclRdpn4Y-26" value="Tidak" style="edgeLabel;html=1;align=center;verticalAlign=middle;resizable=0;points=[];" parent="YPFUfWVb4xvoclRdpn4Y-25" vertex="1" connectable="0">
          <mxGeometry x="-0.3883" y="1" relative="1" as="geometry">
            <mxPoint as="offset" />
          </mxGeometry>
        </mxCell>
        <mxCell id="YPFUfWVb4xvoclRdpn4Y-32" style="edgeStyle=orthogonalEdgeStyle;rounded=0;orthogonalLoop=1;jettySize=auto;html=1;exitX=0.5;exitY=0;exitDx=0;exitDy=0;" parent="1" source="YPFUfWVb4xvoclRdpn4Y-29" edge="1">
          <mxGeometry relative="1" as="geometry">
            <mxPoint x="370" y="430" as="targetPoint" />
            <Array as="points">
              <mxPoint x="650" y="430" />
            </Array>
          </mxGeometry>
        </mxCell>
        <mxCell id="YPFUfWVb4xvoclRdpn4Y-33" value="Ya" style="edgeLabel;html=1;align=center;verticalAlign=middle;resizable=0;points=[];" parent="YPFUfWVb4xvoclRdpn4Y-32" vertex="1" connectable="0">
          <mxGeometry x="-0.451" relative="1" as="geometry">
            <mxPoint as="offset" />
          </mxGeometry>
        </mxCell>
        <mxCell id="YPFUfWVb4xvoclRdpn4Y-29" value="Stop" style="rhombus;whiteSpace=wrap;html=1;" parent="1" vertex="1">
          <mxGeometry x="610" y="680" width="80" height="80" as="geometry" />
        </mxCell>
        <mxCell id="YPFUfWVb4xvoclRdpn4Y-31" style="edgeStyle=orthogonalEdgeStyle;rounded=0;orthogonalLoop=1;jettySize=auto;html=1;exitX=0.75;exitY=1;exitDx=0;exitDy=0;entryX=0.5;entryY=1;entryDx=0;entryDy=0;jumpStyle=arc;" parent="1" source="YPFUfWVb4xvoclRdpn4Y-9" target="YPFUfWVb4xvoclRdpn4Y-29" edge="1">
          <mxGeometry relative="1" as="geometry">
            <mxPoint x="435" y="790" as="sourcePoint" />
            <mxPoint x="688.6399999999999" y="800.52" as="targetPoint" />
          </mxGeometry>
        </mxCell>
        <mxCell id="YPFUfWVb4xvoclRdpn4Y-34" style="edgeStyle=orthogonalEdgeStyle;rounded=0;orthogonalLoop=1;jettySize=auto;html=1;exitX=0.5;exitY=1;exitDx=0;exitDy=0;entryX=0.5;entryY=0;entryDx=0;entryDy=0;entryPerimeter=0;" parent="1" source="YPFUfWVb4xvoclRdpn4Y-29" target="YPFUfWVb4xvoclRdpn4Y-3" edge="1">
          <mxGeometry relative="1" as="geometry" />
        </mxCell>
        <mxCell id="YPFUfWVb4xvoclRdpn4Y-35" value="Tidak" style="edgeLabel;html=1;align=center;verticalAlign=middle;resizable=0;points=[];" parent="YPFUfWVb4xvoclRdpn4Y-34" vertex="1" connectable="0">
          <mxGeometry x="0.1749" relative="1" as="geometry">
            <mxPoint as="offset" />
          </mxGeometry>
        </mxCell>
        <mxCell id="-NqHD-lLH1hPpeC-KywK-1" style="edgeStyle=orthogonalEdgeStyle;rounded=0;orthogonalLoop=1;jettySize=auto;html=1;exitX=0.5;exitY=1;exitDx=0;exitDy=0;exitPerimeter=0;entryX=0.5;entryY=0;entryDx=0;entryDy=0;" edge="1" parent="1" source="-NqHD-lLH1hPpeC-KywK-2" target="-NqHD-lLH1hPpeC-KywK-5">
          <mxGeometry relative="1" as="geometry" />
        </mxCell>
        <mxCell id="-NqHD-lLH1hPpeC-KywK-2" value="Start" style="strokeWidth=2;html=1;shape=mxgraph.flowchart.start_1;whiteSpace=wrap;" vertex="1" parent="1">
          <mxGeometry x="325" y="160" width="100" height="60" as="geometry" />
        </mxCell>
        <mxCell id="-NqHD-lLH1hPpeC-KywK-3" value="End" style="strokeWidth=2;html=1;shape=mxgraph.flowchart.start_1;whiteSpace=wrap;" vertex="1" parent="1">
          <mxGeometry x="325" y="850" width="100" height="60" as="geometry" />
        </mxCell>
        <mxCell id="-NqHD-lLH1hPpeC-KywK-4" style="edgeStyle=orthogonalEdgeStyle;rounded=0;orthogonalLoop=1;jettySize=auto;html=1;exitX=0.5;exitY=1;exitDx=0;exitDy=0;entryX=0.5;entryY=0;entryDx=0;entryDy=0;" edge="1" parent="1" source="-NqHD-lLH1hPpeC-KywK-5" target="-NqHD-lLH1hPpeC-KywK-8">
          <mxGeometry relative="1" as="geometry" />
        </mxCell>
        <mxCell id="-NqHD-lLH1hPpeC-KywK-5" value="Pilih 1 dari 3 gambar" style="shape=parallelogram;perimeter=parallelogramPerimeter;whiteSpace=wrap;html=1;fixedSize=1;" vertex="1" parent="1">
          <mxGeometry x="282.5" y="250" width="185" height="60" as="geometry" />
        </mxCell>
        <mxCell id="-NqHD-lLH1hPpeC-KywK-6" style="edgeStyle=orthogonalEdgeStyle;rounded=0;orthogonalLoop=1;jettySize=auto;html=1;entryX=0.5;entryY=0;entryDx=0;entryDy=0;exitX=0.5;exitY=1;exitDx=0;exitDy=0;" edge="1" parent="1" target="-NqHD-lLH1hPpeC-KywK-11">
          <mxGeometry relative="1" as="geometry">
            <mxPoint x="375" y="440" as="sourcePoint" />
          </mxGeometry>
        </mxCell>
        <mxCell id="-NqHD-lLH1hPpeC-KywK-8" value="Tabel Citra dan Form Input Muncul" style="rounded=0;whiteSpace=wrap;html=1;" vertex="1" parent="1">
          <mxGeometry x="315" y="340" width="120" height="60" as="geometry" />
        </mxCell>
        <mxCell id="-NqHD-lLH1hPpeC-KywK-9" style="edgeStyle=orthogonalEdgeStyle;rounded=0;orthogonalLoop=1;jettySize=auto;html=1;exitX=0.5;exitY=1;exitDx=0;exitDy=0;entryX=0.5;entryY=0;entryDx=0;entryDy=0;" edge="1" parent="1" target="-NqHD-lLH1hPpeC-KywK-13">
          <mxGeometry relative="1" as="geometry">
            <mxPoint x="375" y="570" as="sourcePoint" />
          </mxGeometry>
        </mxCell>
        <mxCell id="-NqHD-lLH1hPpeC-KywK-11" value="Ubah nilai citra warna" style="shape=parallelogram;perimeter=parallelogramPerimeter;whiteSpace=wrap;html=1;fixedSize=1;" vertex="1" parent="1">
          <mxGeometry x="282.5" y="470" width="185" height="60" as="geometry" />
        </mxCell>
        <mxCell id="-NqHD-lLH1hPpeC-KywK-12" style="edgeStyle=orthogonalEdgeStyle;rounded=0;orthogonalLoop=1;jettySize=auto;html=1;exitX=0.5;exitY=1;exitDx=0;exitDy=0;entryX=0.5;entryY=0;entryDx=0;entryDy=0;" edge="1" parent="1" source="-NqHD-lLH1hPpeC-KywK-13" target="-NqHD-lLH1hPpeC-KywK-15">
          <mxGeometry relative="1" as="geometry" />
        </mxCell>
        <mxCell id="-NqHD-lLH1hPpeC-KywK-13" value="Tekan Tombol Play" style="shape=parallelogram;perimeter=parallelogramPerimeter;whiteSpace=wrap;html=1;fixedSize=1;" vertex="1" parent="1">
          <mxGeometry x="282.5" y="590" width="185" height="60" as="geometry" />
        </mxCell>
        <mxCell id="-NqHD-lLH1hPpeC-KywK-14" style="edgeStyle=orthogonalEdgeStyle;rounded=0;orthogonalLoop=1;jettySize=auto;html=1;exitX=1;exitY=0.5;exitDx=0;exitDy=0;entryX=0;entryY=0.5;entryDx=0;entryDy=0;" edge="1" parent="1" source="-NqHD-lLH1hPpeC-KywK-15" target="-NqHD-lLH1hPpeC-KywK-19">
          <mxGeometry relative="1" as="geometry">
            <mxPoint x="510" y="720" as="targetPoint" />
          </mxGeometry>
        </mxCell>
        <mxCell id="-NqHD-lLH1hPpeC-KywK-15" value="Proses mengubah citra graysclae menjadi citra negatif" style="rounded=0;whiteSpace=wrap;html=1;" vertex="1" parent="1">
          <mxGeometry x="315" y="690" width="120" height="60" as="geometry" />
        </mxCell>
        <mxCell id="-NqHD-lLH1hPpeC-KywK-18" style="edgeStyle=orthogonalEdgeStyle;rounded=0;orthogonalLoop=1;jettySize=auto;html=1;exitX=1;exitY=0.5;exitDx=0;exitDy=0;entryX=0;entryY=0.5;entryDx=0;entryDy=0;" edge="1" parent="1" source="-NqHD-lLH1hPpeC-KywK-19" target="-NqHD-lLH1hPpeC-KywK-26">
          <mxGeometry relative="1" as="geometry" />
        </mxCell>
        <mxCell id="-NqHD-lLH1hPpeC-KywK-19" value="Pause" style="rhombus;whiteSpace=wrap;html=1;" vertex="1" parent="1">
          <mxGeometry x="490" y="680" width="80" height="80" as="geometry" />
        </mxCell>
        <mxCell id="-NqHD-lLH1hPpeC-KywK-21" style="edgeStyle=orthogonalEdgeStyle;rounded=0;orthogonalLoop=1;jettySize=auto;html=1;exitX=0.5;exitY=1;exitDx=0;exitDy=0;entryX=1;entryY=0.5;entryDx=0;entryDy=0;entryPerimeter=0;" edge="1" parent="1" source="-NqHD-lLH1hPpeC-KywK-19" target="-NqHD-lLH1hPpeC-KywK-3">
          <mxGeometry relative="1" as="geometry" />
        </mxCell>
        <mxCell id="-NqHD-lLH1hPpeC-KywK-22" value="Tidak" style="edgeLabel;html=1;align=center;verticalAlign=middle;resizable=0;points=[];" vertex="1" connectable="0" parent="-NqHD-lLH1hPpeC-KywK-21">
          <mxGeometry x="-0.3883" y="1" relative="1" as="geometry">
            <mxPoint as="offset" />
          </mxGeometry>
        </mxCell>
        <mxCell id="-NqHD-lLH1hPpeC-KywK-26" value="Stop" style="rhombus;whiteSpace=wrap;html=1;" vertex="1" parent="1">
          <mxGeometry x="610" y="680" width="80" height="80" as="geometry" />
        </mxCell>
        <mxCell id="-NqHD-lLH1hPpeC-KywK-27" style="edgeStyle=orthogonalEdgeStyle;rounded=0;orthogonalLoop=1;jettySize=auto;html=1;exitX=0.75;exitY=1;exitDx=0;exitDy=0;entryX=0.5;entryY=1;entryDx=0;entryDy=0;jumpStyle=arc;" edge="1" parent="1" source="-NqHD-lLH1hPpeC-KywK-15" target="-NqHD-lLH1hPpeC-KywK-26">
          <mxGeometry relative="1" as="geometry">
            <mxPoint x="435" y="790" as="sourcePoint" />
            <mxPoint x="688.6399999999999" y="800.52" as="targetPoint" />
          </mxGeometry>
        </mxCell>
        <mxCell id="-NqHD-lLH1hPpeC-KywK-28" style="edgeStyle=orthogonalEdgeStyle;rounded=0;orthogonalLoop=1;jettySize=auto;html=1;exitX=0.5;exitY=1;exitDx=0;exitDy=0;entryX=0.5;entryY=0;entryDx=0;entryDy=0;entryPerimeter=0;" edge="1" parent="1" source="-NqHD-lLH1hPpeC-KywK-26" target="-NqHD-lLH1hPpeC-KywK-3">
          <mxGeometry relative="1" as="geometry" />
        </mxCell>
        <mxCell id="-NqHD-lLH1hPpeC-KywK-29" value="Tidak" style="edgeLabel;html=1;align=center;verticalAlign=middle;resizable=0;points=[];" vertex="1" connectable="0" parent="-NqHD-lLH1hPpeC-KywK-28">
          <mxGeometry x="0.1749" relative="1" as="geometry">
            <mxPoint as="offset" />
          </mxGeometry>
        </mxCell>
      </root>
    </mxGraphModel>
  </diagram>
</mxfile>
